<?xml version="1.0" encoding="UTF-8" standalone="no"?>
<!-- Created with Inkscape (http://www.inkscape.org/) -->

<svg
   width="139.81264mm"
   height="140.00024mm"
   viewBox="0 0 139.81264 140.00024"
   version="1.1"
   id="svg1"
   xml:space="preserve"
   sodipodi:docname="rewbtc_union.svg"
   inkscape:version="1.3.2 (091e20e, 2023-11-25)"
   xmlns:inkscape="http://www.inkscape.org/namespaces/inkscape"
   xmlns:sodipodi="http://sodipodi.sourceforge.net/DTD/sodipodi-0.dtd"
   xmlns="http://www.w3.org/2000/svg"
   xmlns:svg="http://www.w3.org/2000/svg"><sodipodi:namedview
     id="namedview1"
     pagecolor="#f7931a"
     bordercolor="#000000"
     borderopacity="0.25"
     inkscape:showpageshadow="2"
     inkscape:pageopacity="0.0"
     inkscape:pagecheckerboard="0"
     inkscape:deskcolor="#d1d1d1"
     inkscape:document-units="mm"
     showgrid="true"
     inkscape:zoom="1.2879566"
     inkscape:cx="149.46156"
     inkscape:cy="353.27277"
     inkscape:window-width="1936"
     inkscape:window-height="1211"
     inkscape:window-x="416"
     inkscape:window-y="109"
     inkscape:window-maximized="0"
     inkscape:current-layer="layer1"><inkscape:grid
       id="grid1"
       units="mm"
       originx="-35"
       originy="-79.999741"
       spacingx="0.99999998"
       spacingy="1"
       empcolor="#0099e5"
       empopacity="0.30196078"
       color="#0099e5"
       opacity="0.14901961"
       empspacing="5"
       dotted="false"
       gridanglex="30"
       gridanglez="30"
       visible="true"
       enabled="true" /></sodipodi:namedview><defs
     id="defs1" /><g
     inkscape:label="Layer 1"
     inkscape:groupmode="layer"
     id="layer1"
     transform="translate(-35,-79.999738)"><path
       style="fill:#fbd090;fill-opacity:1;stroke-width:0.264583"
       d="m 85,105 v 89.99999 l -50,-45 z"
       id="path2"
       inkscape:label="triangle" /><path
       id="path1"
       style="fill:#ffffff;fill-opacity:1;stroke-width:0.264583"
       d="m 65.000167,79.999768 v 25.000022 l 65.178453,-0.0796 C 152.67042,105 150,122.90414 150,122.90414 c 0,0 2.25972,17.09586 -20.00018,17.09608 h -25.0935 L 105,105 l -50,45 49.90632,44.99999 v -34.79453 l 25.0935,-0.20543 C 152.46515,160 150,177.30103 150,177.30103 c 0,0 2.465,17.69896 -19.82138,17.77852 l -65.178453,-0.0796 v 25.00003 h 64.999653 c 34.99996,0 45.00013,-20.0001 44.81018,-42.40723 0.004,-17.71883 -7.1393,-25.33319 -22.13928,-27.59289 C 167.6707,147.74015 174.814,140.1258 174.81,122.40697 174.99995,99.999841 165,79.999997 129.99982,79.999738 Z"
       sodipodi:nodetypes="ccccccccccccccccccccc" /></g></svg>
